<?xml version="1.0" encoding="UTF-8"?>
<svg xmlns="http://www.w3.org/2000/svg" xmlns:xlink="http://www.w3.org/1999/xlink" width="400pt" height="400pt" viewBox="0 0 400 400" version="1.1">
<g id="surface167">
<path style=" stroke:none;fill-rule:nonzero;fill:rgb(98.039216%,96.862745%,94.901961%);fill-opacity:1;" d="M 205.648438 15.085938 C 250.789062 16.464844 293.863281 34.308594 326.757812 65.25 L 258.308594 138.015625 C 243.179688 123.78125 223.363281 115.574219 202.597656 114.941406 Z M 205.648438 15.085938 "/>
<path style=" stroke:none;fill-rule:nonzero;fill:rgb(98.039216%,96.862745%,94.901961%);fill-opacity:1;" d="M 73.242188 65.25 C 106.136719 34.308594 149.210938 16.464844 194.351562 15.085938 L 197.402344 114.941406 C 176.636719 115.574219 156.820312 123.78125 141.691406 138.015625 Z M 73.242188 65.25 "/>
<path style=" stroke:none;fill-rule:nonzero;fill:rgb(98.039216%,96.862745%,94.901961%);fill-opacity:1;" d="M 15.085938 194.351562 C 16.464844 149.210938 34.308594 106.136719 65.25 73.242188 L 138.015625 141.691406 C 123.78125 156.820312 115.574219 176.636719 114.941406 197.402344 Z M 15.085938 194.351562 "/>
<path style=" stroke:none;fill-rule:nonzero;fill:rgb(98.039216%,96.862745%,94.901961%);fill-opacity:1;" d="M 65.25 326.757812 C 34.308594 293.863281 16.464844 250.789062 15.085938 205.648438 L 114.941406 202.597656 C 115.574219 223.363281 123.78125 243.179688 138.015625 258.308594 Z M 65.25 326.757812 "/>
<path style=" stroke:none;fill-rule:nonzero;fill:rgb(98.039216%,96.862745%,94.901961%);fill-opacity:1;" d="M 194.351562 384.914062 C 149.210938 383.535156 106.136719 365.691406 73.242188 334.75 L 141.691406 261.984375 C 156.820312 276.21875 176.636719 284.425781 197.402344 285.058594 Z M 194.351562 384.914062 "/>
<path style=" stroke:none;fill-rule:nonzero;fill:rgb(98.039216%,96.862745%,94.901961%);fill-opacity:1;" d="M 326.757812 334.75 C 293.863281 365.691406 250.789062 383.535156 205.648438 384.914062 L 202.597656 285.058594 C 223.363281 284.425781 243.179688 276.21875 258.308594 261.984375 Z M 326.757812 334.75 "/>
<path style=" stroke:none;fill-rule:nonzero;fill:rgb(98.039216%,96.862745%,94.901961%);fill-opacity:1;" d="M 231.449219 200 C 231.449219 217.371094 217.371094 231.449219 200 231.449219 C 182.628906 231.449219 168.550781 217.371094 168.550781 200 C 168.550781 182.628906 182.628906 168.550781 200 168.550781 C 217.371094 168.550781 231.449219 182.628906 231.449219 200 "/>
</g>
</svg>
