<?xml version="1.0" encoding="UTF-8"?>
<svg xmlns="http://www.w3.org/2000/svg" xmlns:xlink="http://www.w3.org/1999/xlink" width="512pt" height="512pt" viewBox="0 0 512 512" version="1.1">
<g id="surface173">
<path style=" stroke:none;fill-rule:nonzero;fill:rgb(8.627451%,7.058824%,11.764706%);fill-opacity:1;" d="M 416 0 C 469.019531 0 512 42.980469 512 96 L 512 416 C 512 469.019531 469.019531 512 416 512 L 96 512 C 42.980469 512 0 469.019531 0 416 L 0 96 C 0 42.980469 42.980469 0 96 0 Z M 416 0 "/>
<path style=" stroke:none;fill-rule:nonzero;fill:rgb(42.352941%,20.784314%,87.843137%);fill-opacity:1;" d="M 261.039062 91.078125 C 301.296875 92.308594 339.71875 108.222656 369.054688 135.820312 L 308.003906 200.714844 C 294.511719 188.023438 276.835938 180.703125 258.316406 180.136719 Z M 261.039062 91.078125 "/>
<path style=" stroke:none;fill-rule:nonzero;fill:rgb(18.039216%,48.627451%,96.470588%);fill-opacity:1;" d="M 142.945312 135.820312 C 172.28125 108.222656 210.703125 92.308594 250.960938 91.078125 L 253.683594 180.136719 C 235.164062 180.703125 217.488281 188.023438 203.996094 200.714844 Z M 142.945312 135.820312 "/>
<path style=" stroke:none;fill-rule:nonzero;fill:rgb(0%,69.019608%,63.921569%);fill-opacity:1;" d="M 91.078125 250.960938 C 92.308594 210.703125 108.222656 172.28125 135.820312 142.945312 L 200.714844 203.996094 C 188.023438 217.488281 180.703125 235.164062 180.136719 253.683594 Z M 91.078125 250.960938 "/>
<path style=" stroke:none;fill-rule:nonzero;fill:rgb(100%,69.019608%,12.54902%);fill-opacity:1;" d="M 135.820312 369.054688 C 108.222656 339.71875 92.308594 301.296875 91.078125 261.039062 L 180.136719 258.316406 C 180.703125 276.835938 188.023438 294.511719 200.714844 308.003906 Z M 135.820312 369.054688 "/>
<path style=" stroke:none;fill-rule:nonzero;fill:rgb(100%,41.960784%,29.019608%);fill-opacity:1;" d="M 250.960938 420.921875 C 210.703125 419.691406 172.28125 403.777344 142.945312 376.179688 L 203.996094 311.285156 C 217.488281 323.976562 235.164062 331.296875 253.683594 331.863281 Z M 250.960938 420.921875 "/>
<path style=" stroke:none;fill-rule:nonzero;fill:rgb(90.980392%,21.960784%,42.745098%);fill-opacity:1;" d="M 369.054688 376.179688 C 339.71875 403.777344 301.296875 419.691406 261.039062 420.921875 L 258.316406 331.863281 C 276.835938 331.296875 294.511719 323.976562 308.003906 311.285156 Z M 369.054688 376.179688 "/>
<path style=" stroke:none;fill-rule:nonzero;fill:rgb(98.039216%,96.862745%,94.901961%);fill-opacity:1;" d="M 284.050781 256 C 284.050781 271.492188 271.492188 284.050781 256 284.050781 C 240.507812 284.050781 227.949219 271.492188 227.949219 256 C 227.949219 240.507812 240.507812 227.949219 256 227.949219 C 271.492188 227.949219 284.050781 240.507812 284.050781 256 "/>
</g>
</svg>
