<?xml version="1.0" encoding="UTF-8"?>
<svg xmlns="http://www.w3.org/2000/svg" xmlns:xlink="http://www.w3.org/1999/xlink" width="512pt" height="512pt" viewBox="0 0 512 512" version="1.1">
<g id="surface179">
<path style=" stroke:none;fill-rule:nonzero;fill:rgb(8.627451%,7.058824%,11.764706%);fill-opacity:1;" d="M 512 256 C 512 397.386719 397.386719 512 256 512 C 114.613281 512 0 397.386719 0 256 C 0 114.613281 114.613281 0 256 0 C 397.386719 0 512 114.613281 512 256 "/>
<path style=" stroke:none;fill-rule:nonzero;fill:rgb(42.352941%,20.784314%,87.843137%);fill-opacity:1;" d="M 260.886719 96.074219 C 299.925781 97.265625 337.179688 112.699219 365.628906 139.460938 L 306.429688 202.390625 C 293.34375 190.082031 276.207031 182.984375 258.246094 182.433594 Z M 260.886719 96.074219 "/>
<path style=" stroke:none;fill-rule:nonzero;fill:rgb(18.039216%,48.627451%,96.470588%);fill-opacity:1;" d="M 146.371094 139.460938 C 174.820312 112.699219 212.074219 97.265625 251.113281 96.074219 L 253.753906 182.433594 C 235.792969 182.984375 218.65625 190.082031 205.570312 202.390625 Z M 146.371094 139.460938 "/>
<path style=" stroke:none;fill-rule:nonzero;fill:rgb(0%,69.019608%,63.921569%);fill-opacity:1;" d="M 96.074219 251.113281 C 97.265625 212.074219 112.699219 174.820312 139.460938 146.371094 L 202.390625 205.570312 C 190.082031 218.65625 182.984375 235.792969 182.433594 253.753906 Z M 96.074219 251.113281 "/>
<path style=" stroke:none;fill-rule:nonzero;fill:rgb(100%,69.019608%,12.54902%);fill-opacity:1;" d="M 139.460938 365.628906 C 112.699219 337.179688 97.265625 299.925781 96.074219 260.886719 L 182.433594 258.246094 C 182.984375 276.207031 190.082031 293.34375 202.390625 306.429688 Z M 139.460938 365.628906 "/>
<path style=" stroke:none;fill-rule:nonzero;fill:rgb(100%,41.960784%,29.019608%);fill-opacity:1;" d="M 251.113281 415.925781 C 212.074219 414.734375 174.820312 399.300781 146.371094 372.539062 L 205.570312 309.609375 C 218.65625 321.917969 235.792969 329.015625 253.753906 329.566406 Z M 251.113281 415.925781 "/>
<path style=" stroke:none;fill-rule:nonzero;fill:rgb(90.980392%,21.960784%,42.745098%);fill-opacity:1;" d="M 365.628906 372.539062 C 337.179688 399.300781 299.925781 414.734375 260.886719 415.925781 L 258.246094 329.566406 C 276.207031 329.015625 293.34375 321.917969 306.429688 309.609375 Z M 365.628906 372.539062 "/>
<path style=" stroke:none;fill-rule:nonzero;fill:rgb(98.039216%,96.862745%,94.901961%);fill-opacity:1;" d="M 283.199219 256 C 283.199219 271.023438 271.023438 283.199219 256 283.199219 C 240.976562 283.199219 228.800781 271.023438 228.800781 256 C 228.800781 240.976562 240.976562 228.800781 256 228.800781 C 271.023438 228.800781 283.199219 240.976562 283.199219 256 "/>
</g>
</svg>
